# xmcd
#
# Track frame offsets:
#	150
#	11917
#	22002
#	34417
#	47215
#	59352
#	74702
#	84762
#	97030
#	109690
#	121305
#	132895
#
# Disc length: 1945 seconds
#
# Revision: 1
# Processed by: cddbd v1.4PL0 Copyright (c) Steve Scherf et al.
# Submitted via: audiograbber 1.82.02
#
DISCID=a907970c
DTITLE=Tennessee Ernie Ford - 36 All Time Greatest Hits [CD1)
DYEAR=1999
DGENRE=
TTITLE0=Sixteen Tons
TTITLE1=You Don't Have To Be A Baby To Cry
TTITLE2=Colorado Country Morning
TTITLE3=Farther Down The River
TTITLE4=The Devil Ain't A Lonely Woman's Friend
TTITLE5=Cone On Down
TTITLE6=Watermelon Song
TTITLE7=Honey-Eyed Girl
TTITLE8=That's All
TTITLE9=Call Me Darling, Call Me Sweetheart, Call Me Dear
TTITLE10=River Of No Return
TTITLE11=The Ballad Of Davy Crockett
EXTD=
EXTT0=
EXTT1=
EXTT2=
EXTT3=
EXTT4=
EXTT5=
EXTT6=
EXTT7=
EXTT8=
EXTT9=
EXTT10=
EXTT11=
PLAYORDER=
